<svg xmlns="http://www.w3.org/2000/svg" fill="none" viewBox="0 0 196 159"><path fill="#17183B" d="M129.704.775h28.689v35.087c5.04-4.653 10.468-6.785 16.09-6.785 16.671 0 21.517 11.243 21.517 31.79v68.235c0 19.772-6.203 29.659-21.517 29.659-5.622 0-11.05-2.133-16.09-6.785v6.203h-28.689zm37.606 59.9c0-5.235-1.163-7.173-4.846-7.173-3.295 0-4.071 2.52-4.071 7.172v66.49c0 5.04.97 7.172 4.459 7.172 3.683 0 4.458-2.326 4.458-7.172zM80.724 26.945v-2.52C80.724 6.397 86.152 0 106.7 0h14.926v21.517h-6.397c-3.877 0-5.816 2.326-5.816 6.59v1.745h12.213v22.099h-12.213v106.228H80.724V51.951h-7.56V29.852h7.56zM0 112.045h28.69v17.252c0 5.428.969 7.754 4.458 7.754 2.907 0 4.458-1.939 4.458-5.234v-17.058999999999997c0-7.947-12.018-9.304-25.975-18.027C0 89.365 0 84.518 0 70.174V55.829c0-23.65 7.366-26.75 33.148-26.75 28.883 0 33.148 4.07 33.148 32.953V73.47h-28.69V58.931c0-5.622-.581-7.754-4.846-7.754-3.49 0-4.07 2.714-4.07 7.754v8.141c0 11.243 3.489 10.855 18.221 18.222 14.15 6.978 19.385 11.049 19.385 24.424v16.284c0 28.495-3.49 32.954-32.954 32.954C4.458 158.956 0 155.079 0 126.002z"/></svg>
